<?xml version="1.0" standalone="no"?>
<!DOCTYPE svg PUBLIC "-//W3C//DTD SVG 20010904//EN"
 "http://www.w3.org/TR/2001/REC-SVG-20010904/DTD/svg10.dtd">
<svg version="1.0" xmlns="http://www.w3.org/2000/svg"
 width="1328.000000pt" height="1328.000000pt" viewBox="0 0 1328.000000 1328.000000"
 preserveAspectRatio="xMidYMid meet">

<g transform="translate(0.000000,1328.000000) scale(0.100000,-0.100000)"
fill="#000000" stroke="none">
<path d="M0 6640 l0 -6640 5249 0 c3462 0 5317 4 5452 10 688 35 1149 165
1551 436 136 91 191 137 326 269 335 324 547 733 647 1245 58 301 55 -2 55
4701 0 4239 0 4318 -20 4455 -61 434 -153 710 -341 1031 -29 48 -64 104 -79
123 -15 19 -53 71 -86 115 -124 167 -393 403 -599 524 -341 202 -659 295
-1231 361 -62 7 -1812 10 -5507 10 l-5417 0 0 -6640z m7049 3385 c554 -56
1044 -232 1506 -540 822 -548 1349 -1419 1461 -2415 14 -125 20 -593 8 -624
-5 -14 -30 -16 -173 -16 l-166 0 0 278 c0 281 -6 352 -46 562 -134 710 -530
1360 -1098 1800 -360 280 -805 485 -1231 569 -221 44 -345 55 -605 54 -203 0
-277 -4 -392 -21 -551 -82 -1004 -274 -1443 -610 -166 -128 -419 -392 -566
-592 -125 -171 -267 -423 -347 -620 -329 -809 -293 -1720 97 -2477 35 -67 61
-125 58 -128 -3 -3 -89 -5 -192 -5 l-187 0 -53 113 c-64 139 -169 452 -205
612 -119 536 -112 1056 22 1580 169 663 515 1227 1036 1687 420 371 1013 654
1587 758 264 48 655 63 929 35z m-278 -504 c24 -19 24 -22 27 -237 2 -119 1
-227 -2 -240 -4 -13 -20 -31 -38 -40 -26 -13 -38 -14 -69 -5 -21 7 -43 20 -49
31 -6 11 -10 111 -10 244 0 213 1 227 20 246 26 26 89 27 121 1z m-1372 -380
c68 -96 221 -367 221 -391 0 -60 -97 -103 -138 -62 -18 18 -195 307 -224 367
-22 44 -1 86 56 110 37 16 62 9 85 -24z m2738 13 c13 -8 30 -25 39 -39 16 -24
15 -28 -28 -102 -127 -221 -201 -335 -224 -345 -31 -14 -85 9 -110 47 -17 26
-16 29 8 78 47 95 198 342 224 365 27 24 48 23 91 -4z m235 -874 c52 -15 132
-81 165 -137 22 -38 28 -60 28 -109 0 -76 -6 -85 -178 -267 -70 -74 -137 -147
-149 -162 l-21 -27 127 -127 c151 -151 151 -154 75 -243 -57 -65 -98 -91 -126
-81 -10 4 -75 60 -145 126 -70 65 -132 116 -137 112 -6 -3 -77 -79 -158 -168
-217 -237 -228 -248 -245 -242 -8 3 -36 35 -62 70 -62 85 -132 146 -211 186
-58 29 -64 34 -53 50 7 9 102 112 211 227 108 116 197 215 197 220 0 5 -74 81
-164 168 -90 88 -168 169 -175 181 -7 14 -8 30 -2 45 13 33 136 148 159 148
28 0 76 -41 236 -201 l141 -141 78 84 c42 46 105 116 140 156 105 123 176 158
269 132z m-3828 -232 c105 -61 196 -118 203 -127 20 -26 15 -67 -13 -100 -43
-51 -54 -48 -269 79 -49 29 -110 64 -135 78 -64 36 -80 52 -80 79 0 49 41 103
78 103 14 0 111 -50 216 -112z m4592 97 c12 -8 27 -27 33 -44 26 -61 20 -67
-189 -193 -116 -70 -206 -117 -222 -118 -42 0 -82 40 -82 84 0 48 14 61 159
142 66 37 147 85 180 106 65 41 89 46 121 23z m-3092 -906 c18 -13 163 -150
321 -304 158 -154 297 -286 308 -294 20 -14 26 -9 125 95 57 60 157 168 224
241 135 149 156 161 233 142 35 -9 64 -27 112 -72 110 -104 146 -175 115 -233
-6 -11 -150 -173 -321 -360 -348 -380 -372 -400 -467 -391 -29 3 -67 13 -85
22 -29 16 -472 438 -785 749 -142 141 -157 181 -103 286 25 49 99 119 145 136
56 20 136 13 178 -17z m-1605 -475 c27 -34 27 -74 0 -108 l-20 -26 -244 0
c-241 0 -244 0 -259 22 -23 32 -20 94 4 118 19 19 33 20 259 20 l240 0 20 -26z
m5065 13 c28 -20 33 -96 9 -126 l-20 -24 -239 2 c-228 2 -240 3 -261 23 -29
27 -30 76 -2 112 l20 26 238 0 c180 0 242 -3 255 -13z m496 -513 c55 -32 80
-85 80 -171 l0 -72 363 -3 362 -3 55 -31 c30 -17 70 -50 87 -73 67 -86 64 -8
61 -1482 l-3 -1334 -23 -50 c-29 -63 -73 -109 -137 -143 l-50 -27 -1270 0
-1270 0 -51 27 c-60 32 -128 105 -146 157 -10 28 -13 336 -16 1378 -2 1338 -2
1342 19 1397 27 73 92 138 164 165 52 20 76 21 400 21 l345 0 -6 40 c-11 65 3
124 39 164 55 64 63 65 537 63 409 -2 426 -3 460 -23z m-6644 -663 c78 -36
134 -124 134 -214 0 -73 -56 -161 -121 -188 -26 -10 -29 -16 -29 -60 l0 -49
439 0 c410 0 442 -1 484 -19 61 -26 113 -75 145 -135 l27 -51 3 -477 3 -477
-53 -15 c-29 -8 -65 -18 -80 -22 l-27 -6 -3 480 -3 480 -25 27 c-54 58 -9 55
-909 55 l-830 0 -36 -31 c-20 -18 -39 -47 -45 -69 -7 -26 -10 -318 -8 -867 3
-913 0 -865 65 -909 27 -18 60 -19 653 -24 l624 -5 13 -60 c7 -33 12 -68 13
-78 0 -17 -33 -17 -652 -15 l-653 3 -52 24 c-67 30 -125 93 -149 162 -18 51
-19 97 -19 924 0 982 -5 922 79 1013 81 88 73 87 479 90 l357 3 0 49 c0 28 -5
50 -10 50 -23 0 -100 84 -116 125 -25 67 -16 153 22 208 61 87 184 121 280 78z
m1372 -4 c29 -31 41 -68 30 -93 -5 -11 -96 -73 -204 -138 -217 -130 -232 -135
-271 -77 -29 43 -29 77 0 103 44 39 372 227 398 228 14 0 35 -10 47 -23z m861
-843 c20 -17 31 -35 31 -52 0 -14 -42 -98 -97 -191 -129 -221 -136 -231 -178
-231 -44 0 -95 42 -95 79 0 28 208 386 238 409 26 20 68 14 101 -14z m2301
-94 c0 -60 -2 -110 -4 -110 -9 0 -74 107 -80 133 -5 23 -1 33 23 57 54 54 61
44 61 -80z m-5121 85 c73 -37 43 -145 -40 -145 -52 0 -89 81 -56 122 12 16 46
37 60 38 4 0 21 -7 36 -15z m310 0 c72 -37 45 -145 -36 -145 -82 0 -102 108
-28 148 26 15 31 15 64 -3z m324 -5 c33 -26 41 -63 23 -99 -25 -48 -82 -56
-121 -16 -32 31 -32 74 0 109 29 31 63 33 98 6z m310 0 c33 -26 41 -63 23 -99
-26 -50 -92 -58 -125 -15 -25 32 -26 55 -6 94 22 43 68 51 108 20z m318 -9
c17 -18 29 -40 29 -56 0 -36 -41 -75 -80 -75 -39 0 -80 39 -80 75 0 32 50 85
80 85 12 0 35 -13 51 -29z m667 -201 c328 -308 810 -567 1261 -679 285 -71
520 -96 834 -88 364 9 685 72 991 192 49 19 93 35 98 35 4 0 8 -79 8 -175 0
-202 15 -177 -138 -230 -649 -223 -1418 -227 -2082 -10 -350 114 -658 273
-947 488 l-123 91 0 228 c0 125 3 228 6 228 3 0 45 -36 92 -80z m2077 -95 l25
-24 0 -219 c0 -207 -1 -221 -21 -246 -28 -36 -89 -37 -124 -1 l-25 24 0 225 0
225 26 20 c37 29 89 27 119 -4z m-3326 -336 c101 -73 94 -211 -13 -274 -56
-32 -107 -32 -163 0 -147 87 -85 304 88 305 36 0 55 -7 88 -31z m1291 -346
c80 -26 180 -80 180 -98 0 -6 -13 -26 -29 -45 l-29 -35 -65 32 c-310 155 -663
3 -761 -326 -19 -66 -21 -198 -2 -266 44 -165 170 -301 336 -362 102 -38 250
-40 353 -4 225 77 380 325 349 559 l-10 77 29 28 c55 52 73 31 91 -109 24
-178 -43 -365 -181 -504 -89 -90 -139 -123 -233 -156 -202 -71 -400 -47 -576
70 -122 81 -208 195 -257 340 -22 66 -27 97 -26 185 0 122 15 190 65 289 45
90 102 160 173 215 60 46 152 96 213 116 111 36 261 33 380 -6z m384 -124 c49
-39 42 -51 -201 -321 -126 -138 -250 -277 -276 -307 -64 -74 -85 -91 -112 -91
-30 0 -315 278 -315 308 0 24 44 62 72 62 11 0 64 -46 128 -112 98 -99 111
-110 126 -97 22 18 248 268 384 424 148 170 148 170 194 134z"/>
<path d="M7479 8153 c-13 -16 -33 -38 -44 -51 l-19 -23 159 -159 c88 -88 164
-160 170 -160 5 0 30 23 54 51 l44 51 -162 159 c-89 87 -165 159 -169 159 -5
0 -19 -12 -33 -27z"/>
<path d="M8117 7482 c-26 -26 -46 -52 -46 -57 1 -6 55 -61 120 -124 l119 -115
45 49 c25 27 45 54 45 60 0 10 -220 235 -231 235 -2 0 -26 -22 -52 -48z"/>
<path d="M9110 6157 l-25 -13 -3 -168 c-2 -147 0 -171 14 -187 16 -18 40 -19
424 -19 381 0 408 1 423 18 14 16 17 44 17 180 0 149 -2 164 -20 182 -19 19
-33 20 -412 20 -297 0 -399 -3 -418 -13z"/>
<path d="M8250 5858 c-18 -13 -43 -41 -54 -63 -21 -40 -21 -41 -21 -1350 1
-1206 2 -1312 18 -1341 22 -43 71 -82 110 -89 18 -3 579 -4 1248 -3 l1216 3
35 27 c73 56 68 -52 68 1408 0 1435 4 1334 -60 1395 l-31 30 -348 3 -348 3 -6
-61 c-6 -67 -28 -113 -70 -144 -28 -20 -39 -21 -465 -24 -385 -2 -442 -1 -480
14 -58 22 -90 71 -98 152 l-7 62 -337 0 c-333 0 -337 0 -370 -22z m596 -389
c15 -17 19 -36 19 -104 l0 -83 81 -4 c111 -4 124 -16 124 -112 0 -103 -9 -112
-117 -121 l-88 -7 0 -80 c0 -75 -2 -81 -28 -104 -40 -34 -134 -35 -173 -1 -24
21 -28 32 -32 104 l-4 81 -78 4 c-107 4 -120 17 -120 113 0 104 14 119 118
123 l79 4 6 85 c7 114 16 123 117 123 65 0 80 -3 96 -21z m1752 -191 c7 -7 12
-21 12 -33 0 -12 -5 -26 -12 -33 -17 -17 -1239 -17 -1256 0 -7 7 -12 21 -12
33 0 12 5 26 12 33 17 17 1239 17 1256 0z m-152 -209 c19 -15 18 -44 -2 -63
-14 -14 -78 -16 -553 -16 -581 0 -567 -1 -559 52 2 12 12 27 24 33 30 15 1072
9 1090 -6z m-1353 -310 c33 -17 68 -51 78 -76 13 -35 -6 -72 -75 -143 -35 -36
-118 -128 -186 -205 -147 -169 -164 -185 -195 -185 -35 0 -285 251 -285 286 0
48 67 114 116 114 9 0 50 -33 91 -72 l75 -73 31 36 c105 120 262 292 284 309
30 23 36 24 66 9z m1487 -218 c32 -9 41 -58 14 -78 -23 -17 -1214 -19 -1245
-3 -25 14 -26 65 -1 79 19 12 1190 13 1232 2z m-136 -217 c20 -19 20 -48 2
-64 -22 -17 -1080 -17 -1101 0 -18 15 -20 51 -3 68 9 9 145 12 549 12 475 0
539 -2 553 -16z m-1311 -298 c30 -27 37 -41 37 -70 0 -32 -10 -47 -77 -117
l-78 -81 -5 -160 -5 -160 -28 -24 c-28 -24 -30 -24 -247 -24 -217 0 -219 0
-247 24 -28 24 -28 27 -33 158 -3 73 -3 180 0 236 5 98 6 105 33 128 28 24 30
24 240 24 l213 0 47 50 c60 63 95 67 150 16z m1465 -238 c16 -16 15 -53 -1
-66 -9 -8 -204 -12 -631 -12 -506 -1 -620 1 -627 12 -12 19 -11 52 3 66 17 17
1239 17 1256 0z m-153 -222 c19 -28 11 -54 -19 -61 -11 -3 -259 -4 -550 -3
-520 3 -529 3 -542 23 -12 18 -11 24 2 43 l15 22 539 0 540 0 15 -24z"/>
<path d="M8700 5338 c0 -51 -4 -98 -8 -105 -5 -8 -42 -13 -102 -15 l-95 -3 0
-50 0 -50 90 -5 c50 -3 95 -9 102 -13 8 -5 10 -24 6 -56 -3 -27 -3 -69 1 -94
6 -40 11 -46 36 -52 16 -4 39 -4 50 0 18 6 20 15 20 100 0 57 4 96 11 101 6 3
48 6 94 5 96 -2 108 6 103 71 l-3 43 -102 3 -102 3 -3 102 -3 102 -47 3 -48 3
0 -93z"/>
<path d="M8977 4618 c-42 -51 -119 -138 -171 -193 l-94 -100 -86 85 -86 85
-27 -27 -27 -27 104 -108 c57 -59 109 -111 116 -116 12 -7 33 14 303 311 96
106 110 125 101 142 -9 16 -40 40 -52 40 -2 0 -39 -42 -81 -92z"/>
<path d="M8890 3821 c-94 -105 -175 -191 -179 -191 -4 0 -33 27 -63 60 -30 33
-59 60 -65 60 -6 0 -18 -11 -27 -26 -17 -25 -17 -25 65 -112 45 -48 88 -87 94
-87 7 0 43 34 81 76 38 41 124 135 192 207 130 139 140 160 95 189 -20 14 -28
6 -193 -176z"/>
<path d="M8516 3843 c-7 -55 3 -71 29 -43 10 11 24 20 32 20 8 0 40 -25 72
-55 32 -30 61 -55 64 -55 7 0 147 166 147 174 0 3 -76 6 -169 6 l-168 0 -7
-47z"/>
<path d="M8843 3565 c-46 -51 -83 -96 -83 -100 0 -3 39 -4 88 -3 l87 3 3 98
c1 53 -1 97 -5 96 -4 0 -45 -43 -90 -94z"/>
<path d="M8520 3547 c0 -56 4 -79 13 -83 8 -3 44 -4 81 -2 l67 3 -81 80 -80
80 0 -78z"/>
</g>
</svg>
